PathFileType	4	(X/Y/Z)	C:\Users\Biomechanik\SynologyDrive\AlexP\Athlete_03\Athlete_3_25_03_31\Squat_bar_02\marker_experimental.trc
DataRate	CameraRate	NumFrames	NumMarkers	Units	OrigDataRate	OrigDataStartFrame	OrigNumFrames
200.000000	200.000000	4	55	mm	200.000000	391	522
Frame#	Time	BL			BR			GLAB			RFHD			LFHD			C7			T6			SPINMOL			SPINM2			SPINM3			T12			BELTOL			BELT2			BELT3			SACROL			SACR2			SACR3			LTHOL			LTH2			LTH3			LSHAOL			LSHA2			LSHA3			LHEE			LTOE			LM5			RTHOL			RTH2			RTH3			RSHAOL			RSHA2			RSHA3			RHEE			RTOE			RM5			STRN			XIPH			LACR			LUAOL			LUA2			LUA3			LLAOL			LLA2			LLA3			LWRR			LWRU			RACR			RUAOL			RUA2			RUA3			RLAOL			RLA2			RLA3			RWRR			RWRU			
		X1	Y1	Z1	X2	Y2	Z2	X3	Y3	Z3	X4	Y4	Z4	X5	Y5	Z5	X6	Y6	Z6	X7	Y7	Z7	X8	Y8	Z8	X9	Y9	Z9	X10	Y10	Z10	X11	Y11	Z11	X12	Y12	Z12	X13	Y13	Z13	X14	Y14	Z14	X15	Y15	Z15	X16	Y16	Z16	X17	Y17	Z17	X18	Y18	Z18	X19	Y19	Z19	X20	Y20	Z20	X21	Y21	Z21	X22	Y22	Z22	X23	Y23	Z23	X24	Y24	Z24	X25	Y25	Z25	X26	Y26	Z26	X27	Y27	Z27	X28	Y28	Z28	X29	Y29	Z29	X30	Y30	Z30	X31	Y31	Z31	X32	Y32	Z32	X33	Y33	Z33	X34	Y34	Z34	X35	Y35	Z35	X36	Y36	Z36	X37	Y37	Z37	X38	Y38	Z38	X39	Y39	Z39	X40	Y40	Z40	X41	Y41	Z41	X42	Y42	Z42	X43	Y43	Z43	X44	Y44	Z44	X45	Y45	Z45	X46	Y46	Z46	X47	Y47	Z47	X48	Y48	Z48	X49	Y49	Z49	X50	Y50	Z50	X51	Y51	Z51	X52	Y52	Z52	X53	Y53	Z53	X54	Y54	Z54	X55	Y55	Z55	

392	1.955	248.0256500244141	1167.494140625	-2230.605224609375	231.8524932861328	1209.449096679688	-210.049102783203	523.3780517578125	1371.726318359375	-1184.413696289062	471.4732971191406	1396.22802734375	-1122.3701171875	480.2518615722656	1393.635864257812	-1257.75537109375	287.9921569824219	1250.71337890625	-1191.333251953125	173.6295471191406	1122.785888671875	-1200.708740234375	155.6685180664062	1097.885375976562	-1220.712280273438	145.9429168701172	1091.781005859375	-1171.792602539062	123.5953521728516	1041.339111328125	-1208.56494140625	99.86362457275391	988.5293579101564	-1208.69287109375	63.64767456054688	976.8558959960939	-1224.794677734375	60.95625686645508	974.1607666015626	-1174.399291992188	27.04229164123535	925.8543701171876	-1204.068481445312	-22.6506519317627	830.3132324218751	-1229.5390625	-22.91079139709473	827.6541137695314	-1177.997802734375	-39.99099349975586	770.3176269531251	-1206.52587890625	132.5081329345703	581.0814208984376	-1472.004150390625	139.8719024658203	502.1190185546876	-1467.3291015625	169.4366149902344	535.4267578125001	-1490.727416992188	204.8697509765625	319.2466125488282	-1575.1005859375	150.4080657958984	266.6465148925782	-1549.817749023438	196.6038513183594	258.0604553222657	-1568.748657226562	110.8339614868164	69.95858001708993	-1466.81298828125	314.91015625	50.2370262145997	-1538.2763671875	239.2260437011719	25.98703384399424	-1619.5673828125	103.3268737792969	574.4656372070314	-939.4248657226562	161.4789581298828	578.6767578125	-884.7178344726562	146.4408111572266	539.1717529296875	-910.8857421875	171.6484832763672	332.8641357421876	-835.9917602539062	185.0187225341797	255.8337707519532	-826.923583984375	148.5826873779297	277.2628784179688	-853.2852783203125	90.32845306396484	65.13066864013678	-965.5260620117188	279.8027648925781	47.59906768798833	-869.2765502929688	190.9292449951172	37.48927307128911	-798.2135009765625	410.9250183105469	1096.960815429688	-1194.879638671875	377.1237182617188	953.4321289062501	-1191.65185546875	333.2453308105469	1199.605712890625	-1364.434326171875	212.8131256103516	1091.901123046875	-1455.423706054688	161.6452789306641	1053.215698242188	-1442.888305664062	190.2851104736328	1036.732666015625	-1481.82080078125	161.2698211669922	968.6265869140626	-1550.91357421875	233.9398956298828	959.6275024414064	-1582.781982421875	207.2115783691406	1001.908447265625	-1574.9580078125	269.2429504394531	1078.62890625	-1611.87939453125	279.6962280273438	1107.541748046875	-1539.305786132812	339.7085571289062	1193.14453125	-1028.09716796875	220.7191619873047	1088.439208984375	-945.1051025390624	190.4922180175781	1036.769775390625	-917.0544433593749	171.3545379638672	1049.373657226562	-964.1811523437499	182.7720489501953	967.6087036132812	-834.0544433593749	187.5546569824219	1046.679077148438	-823.2095336914061	222.6695251464844	1010.713684082031	-813.7519531249999	258.9940185546875	1096.132202148438	-795.6055908203124	281.6543273925781	1126.769653320312	-866.0753173828124	
393	1.96	247.6743927001953	1173.33740234375	-2230.35400390625	231.4080505371094	1215.578125	-209.8079986572265	522.7156372070312	1378.188232421875	-1184.25048828125	470.8040771484375	1402.699096679688	-1122.215698242188	479.5806884765625	1400.047973632812	-1257.598876953125	287.4141235351562	1256.810791015625	-1191.118530273438	173.4677886962891	1128.262817382812	-1200.510375976562	155.6095275878906	1103.230590820312	-1220.491088867188	145.8766937255859	1097.112426757812	-1171.573486328125	123.8242568969727	1046.5341796875	-1208.3427734375	100.2978439331055	993.6123657226564	-1208.495971679688	64.15825653076172	981.8467407226564	-1224.633666992188	61.46654510498047	979.1406860351564	-1174.240356445312	27.7156867980957	930.7134399414064	-1203.94775390625	-21.54151916503906	835.3649291992189	-1229.445434570312	-21.84214782714844	832.7093505859376	-1177.902465820312	-38.94610977172852	775.3879394531251	-1206.448120117188	132.3983306884766	584.4840698242189	-1470.841674804688	138.8629302978516	505.4568176269532	-1465.663696289062	168.8254699707031	538.2750244140626	-1489.240478515625	203.6776275634766	319.920623779297	-1573.634887695312	149.4439086914062	266.9341735839845	-1548.666870117188	195.6928558349609	258.6577453613282	-1567.611572265625	110.8207778930664	69.93957519531259	-1466.796264648438	314.9112548828125	50.23823928833017	-1538.239379882812	239.2436218261719	26.04207611083994	-1619.525146484375	103.0230712890625	578.0267333984376	-940.5277099609375	161.2122650146484	581.243896484375	-885.7777099609375	145.7724761962891	542.096435546875	-912.2366333007812	170.2791748046875	333.6230773925782	-837.4249877929688	183.9704284667969	256.7189331054688	-827.93408203125	147.4737548828125	277.8263854980469	-854.4208984375	90.26491546630859	65.12995147705084	-965.5177612304688	279.7893981933594	47.61096191406255	-869.2796020507812	190.9228210449219	37.49200820922857	-798.2146606445312	410.7998962402344	1103.487060546875	-1194.609497070312	377.5628051757812	959.8384399414064	-1191.368041992188	332.7526550292969	1205.73876953125	-1364.196899414062	212.5956573486328	1097.727783203125	-1455.158447265625	161.5626525878906	1058.87548828125	-1442.612548828125	190.2271270751953	1042.488403320312	-1481.5595703125	161.4194183349609	974.2782592773439	-1550.651733398438	234.0918579101562	965.4920654296876	-1582.520874023438	207.2504272460938	1007.703369140625	-1574.690551757812	269.0854187011719	1084.575439453125	-1611.630126953125	279.4778442382812	1113.522583007812	-1539.062744140625	339.2186889648438	1199.363159179688	-1027.822143554688	220.4041290283203	1094.406372070312	-944.9133911132811	190.2984619140625	1042.658203125	-916.9053344726561	171.1495056152344	1055.23095703125	-964.0308227539061	182.6604919433594	973.4918212890625	-833.8992309570311	187.3112335205078	1052.572631835938	-823.0440063476561	222.4734344482422	1016.659729003906	-813.5667724609374	258.6571655273438	1102.129760742188	-795.3839111328124	281.2690734863281	1132.822265625	-865.8331298828124	
394	1.965	247.3202209472656	1179.132446289063	-2230.105224609375	230.9676055908203	1221.63720703125	-209.5694580078124	522.05419921875	1384.586303710938	-1184.091674804688	470.1380310058594	1409.106811523438	-1122.064575195312	478.909423828125	1406.39599609375	-1257.44677734375	286.8345031738281	1262.845947265625	-1190.903686523438	173.3116760253906	1133.675048828125	-1200.310546875	155.5604705810547	1108.511474609375	-1220.269775390625	145.81689453125	1102.377075195312	-1171.3544921875	124.0671310424805	1051.665283203125	-1208.123168945312	100.7393951416016	998.6298828125001	-1208.306396484375	64.67853546142578	986.7732543945314	-1224.483276367188	61.98991775512695	984.0546875000001	-1174.087646484375	28.40760231018066	935.5025024414064	-1203.83349609375	-20.41866683959961	840.3569946289064	-1229.360717773438	-20.7586612701416	837.7035522460939	-1177.81689453125	-37.88962936401367	780.3994140625001	-1206.381103515625	132.2801971435547	587.8544311523439	-1469.681884765625	137.8358764648438	508.7801818847657	-1464.009887695312	168.1995391845703	541.1027221679689	-1487.754028320312	202.4677581787109	320.583953857422	-1572.162719726562	148.4641265869141	267.2098083496095	-1547.519409179688	194.7681274414062	259.2468872070314	-1566.4677734375	110.8076171875	69.92189025878915	-1466.779174804688	314.9132385253906	50.24089050292978	-1538.203491210938	239.26171875	26.09632301330576	-1619.483642578125	102.7148590087891	581.5700683593751	-941.6452026367188	160.9422454833984	583.79296875	-886.8709106445312	145.0926971435547	545.0076293945312	-913.6080322265625	168.8935241699219	334.3745727539063	-838.8787231445312	182.9161834716797	257.6030578613282	-828.9750366210938	146.3522186279297	278.3822631835938	-855.5711669921875	90.20250701904297	65.12856292724615	-965.5098266601562	279.7779846191406	47.62321090698247	-869.2836303710938	190.9176788330078	37.49590301513677	-798.21728515625	410.6744995117188	1109.95361328125	-1194.3427734375	378.0078430175781	966.1869506835939	-1191.090942382812	332.2580261230469	1211.809326171875	-1363.961303710938	212.3794555664062	1103.493041992188	-1454.895385742188	161.4806823730469	1064.47265625	-1442.341552734375	190.1670684814453	1048.184448242188	-1481.305297851562	161.5768432617188	979.8676757812501	-1550.398681640625	234.2468566894531	971.2990112304689	-1582.265502929688	207.293212890625	1013.439758300781	-1574.428955078125	268.9296569824219	1090.4658203125	-1611.384765625	279.2606506347656	1119.444580078125	-1538.821411132812	338.7270812988281	1205.518432617188	-1027.549194335938	220.0850372314453	1100.308959960938	-944.7273559570311	190.1074829101562	1048.483642578125	-916.7623291015624	170.9439086914062	1061.021850585938	-963.8859252929686	182.5513763427734	979.3094482421875	-833.7460327148436	187.0677337646484	1058.398315429688	-822.8827514648436	222.2787475585938	1022.540954589844	-813.3846435546874	258.3226928710938	1108.06201171875	-795.1658935546874	280.8878173828125	1138.80712890625	-865.5963134765624	
395	1.97	246.9633331298828	1184.875	-2229.859130859375	230.5312042236328	1227.620849609375	-209.3336029052734	521.3939819335938	1390.916137695312	-1183.936645507812	469.4752807617188	1415.446655273438	-1121.91650390625	478.23779296875	1412.675903320312	-1257.298095703125	286.2540893554688	1268.814575195312	-1190.68896484375	173.1605224609375	1139.020263671875	-1200.110107421875	155.5204315185547	1113.725463867188	-1220.04931640625	145.7620849609375	1107.572021484375	-1171.13818359375	124.3228302001953	1056.730102539062	-1207.907104492188	101.1870422363281	1003.579040527344	-1208.124755859375	65.20772552490234	991.6320190429689	-1224.34375	62.52495574951172	988.8990478515626	-1173.941772460938	29.11728477478027	940.2182617187501	-1203.725952148438	-19.28239822387695	845.2857055664064	-1229.284545898438	-19.66044425964355	842.6331176757814	-1177.74072265625	-36.82124328613281	785.3479003906251	-1206.324340820312	132.15380859375	591.1867675781251	-1468.524780273438	136.7919921875	512.0842285156251	-1462.367553710938	167.5595550537109	543.9054565429689	-1486.26806640625	201.2399139404297	321.2356872558595	-1570.684448242188	147.4688262939453	267.472869873047	-1546.375244140625	193.8292999267578	259.8271484375001	-1565.31787109375	110.7938690185547	69.90476989746102	-1466.7626953125	314.9158935546875	50.24538803100595	-1538.169067382812	239.2802124023438	26.14958190917979	-1619.442993164062	102.4040451049805	585.0922241210939	-942.7752075195312	160.6703186035156	586.320556640625	-887.9957275390625	144.40283203125	547.9019165039062	-914.9977416992188	167.4930877685547	335.1164855957032	-840.3508911132812	181.8585357666016	258.4836730957032	-830.0465698242188	145.2195434570312	278.9284667968751	-856.734619140625	90.14134216308594	65.12596893310553	-965.501953125	279.7685852050781	47.63567733764653	-869.2890014648438	190.9140625	37.50105285644536	-798.2216186523438	410.5484313964844	1116.354858398438	-1194.07958984375	378.4570007324219	972.4729614257814	-1190.82080078125	331.7619323730469	1217.813354492188	-1363.727783203125	212.1649780273438	1109.193237304688	-1454.635009765625	161.3992156982422	1070.003662109375	-1442.075439453125	190.1060028076172	1053.81689453125	-1481.057983398438	161.7410430908203	985.3923950195314	-1550.154052734375	234.4049835205078	977.0446166992189	-1582.016479492188	207.340087890625	1019.11376953125	-1574.173706054688	268.7757873535156	1096.2958984375	-1611.1435546875	279.0450439453125	1125.304077148438	-1538.581787109375	338.2339477539062	1211.606079101562	-1027.278442382812	219.7631072998047	1106.142333984375	-944.5473632812499	189.9195404052734	1054.241821289062	-916.6250610351561	170.7382049560547	1066.742065429688	-963.7459106445311	182.4465942382812	985.0571899414062	-833.5942382812499	186.8262329101562	1064.151977539062	-822.7246704101561	222.0873413085938	1028.353271484375	-813.2049560546874	257.9912109375	1113.924926757812	-794.9514160156249	280.5119018554688	1144.71923828125	-865.3650512695311	
